<?xml version="1.0" standalone="no"?>
<!DOCTYPE svg PUBLIC "-//W3C//DTD SVG 20010904//EN"
 "http://www.w3.org/TR/2001/REC-SVG-20010904/DTD/svg10.dtd">
<svg version="1.0" xmlns="http://www.w3.org/2000/svg"
 width="500.000000pt" height="500.000000pt" viewBox="0 0 500.000000 500.000000"
 preserveAspectRatio="xMidYMid meet">

<g transform="translate(0.000000,500.000000) scale(0.100000,-0.100000)"
fill="#000000" stroke="none">
<path d="M2710 2872 l0 -70 -48 0 c-165 0 -237 -210 -103 -299 36 -24 122 -32
151 -13 9 5 19 5 27 -2 18 -14 78 29 64 46 -6 7 -12 94 -13 207 l-3 194 -37 3
-38 3 0 -69z m0 -232 l0 -90 -48 0 c-63 0 -97 32 -97 92 0 55 38 88 101 88
l44 0 0 -90z"/>
<path d="M1919 2867 c-29 -16 -54 -40 -74 -72 -26 -42 -30 -58 -30 -120 0 -61
4 -77 28 -113 37 -57 96 -86 172 -86 71 1 108 18 157 72 89 98 62 264 -52 322
-56 28 -144 27 -201 -3z m173 -73 c67 -60 61 -191 -11 -228 -94 -49 -202 28
-185 134 14 83 59 123 132 116 24 -2 52 -12 64 -22z"/>
<path d="M3420 2855 l0 -35 50 0 50 0 0 -170 0 -170 40 0 40 0 0 170 0 170 50
0 50 0 0 35 0 35 -140 0 -140 0 0 -35z"/>
<path d="M3730 2887 c0 -3 27 -81 60 -174 33 -92 63 -183 66 -200 6 -30 9 -33
43 -33 l36 0 68 199 c37 109 67 202 67 205 0 4 -19 6 -42 4 l-42 -3 -38 -129
c-20 -71 -39 -131 -42 -133 -2 -3 -24 55 -48 129 l-43 133 -43 3 c-23 2 -42 1
-42 -1z"/>
<path d="M2398 2796 c-16 -8 -28 -11 -28 -5 0 16 -67 10 -74 -7 -3 -9 -6 -81
-6 -160 l0 -144 40 0 40 0 0 114 c0 126 7 142 60 134 19 -3 31 0 35 10 8 22 6
62 -4 62 -5 0 -15 2 -23 5 -7 3 -25 -1 -40 -9z"/>
<path d="M2990 2800 c-77 -14 -130 -80 -130 -161 0 -99 69 -159 181 -159 75 0
95 12 101 58 4 27 2 32 -11 25 -9 -4 -46 -8 -82 -8 -52 0 -72 4 -88 19 -43 39
-29 46 94 46 l115 0 0 43 c0 96 -79 156 -180 137z m81 -81 c33 -33 19 -44 -59
-47 -79 -3 -87 4 -47 43 30 31 77 33 106 4z"/>
<path d="M3338 2796 c-16 -8 -28 -11 -28 -5 0 5 -16 9 -35 9 l-35 0 0 -160 0
-160 35 0 35 0 0 114 c0 128 6 141 65 134 35 -4 35 -4 35 34 0 21 -4 38 -9 38
-5 0 -15 2 -23 5 -7 3 -25 -1 -40 -9z"/>
<path d="M1107 2773 c-2 -4 -8 -77 -12 -160 l-7 -153 31 0 31 0 -1 73 c-2 128
-13 240 -26 244 -6 2 -13 0 -16 -4z"/>
<path d="M1495 2770 c-4 -6 -9 -78 -12 -160 l-6 -150 27 0 26 0 0 149 c0 116
-3 151 -14 160 -10 9 -16 9 -21 1z"/>
<path d="M1900 2290 c0 -93 1 -100 20 -100 19 0 20 7 20 100 0 93 -1 100 -20
100 -19 0 -20 -7 -20 -100z"/>
<path d="M2180 2365 c0 -14 -4 -25 -10 -25 -5 0 -10 -7 -10 -15 0 -8 5 -15 10
-15 6 0 10 -22 10 -48 0 -26 5 -53 12 -60 12 -12 60 -17 71 -6 10 11 -4 33
-18 28 -16 -7 -35 26 -35 60 0 21 5 26 25 26 32 0 34 27 3 32 -15 2 -24 11
-26 26 -5 31 -32 29 -32 -3z"/>
<path d="M2940 2370 c0 -11 -7 -23 -15 -26 -8 -4 -15 -12 -15 -20 0 -8 7 -14
15 -14 11 0 15 -12 15 -48 0 -55 12 -72 52 -72 20 0 28 5 28 18 0 13 -7 18
-22 18 -20 -1 -23 5 -26 42 -3 37 -1 42 17 42 27 0 27 26 1 33 -12 3 -20 14
-20 26 0 12 -6 21 -15 21 -8 0 -15 -9 -15 -20z"/>
<path d="M2033 2343 l-33 -4 0 -75 c0 -58 3 -74 15 -74 10 0 15 15 17 58 3 53
5 57 28 57 23 0 25 -4 28 -57 3 -50 6 -58 22 -58 18 0 20 7 20 60 0 47 -4 64
-20 80 -11 11 -26 19 -32 18 -7 0 -28 -3 -45 -5z"/>
<path d="M2335 2338 c-51 -29 -60 -84 -20 -124 20 -20 33 -25 68 -22 30 2 43
8 45 20 3 15 -2 17 -26 12 -30 -6 -72 9 -72 26 0 6 25 10 55 10 52 0 55 2 55
24 0 27 -42 66 -69 66 -9 0 -25 -6 -36 -12z m53 -30 c20 -20 14 -28 -23 -28
-38 0 -46 13 -17 29 22 13 26 13 40 -1z"/>
<path d="M2503 2343 l-33 -4 0 -75 c0 -67 2 -74 20 -74 16 0 19 8 22 58 3 51
5 57 26 60 15 2 22 9 20 19 -4 19 -11 21 -55 16z"/>
<path d="M2613 2343 l-33 -4 0 -75 c0 -58 3 -74 15 -74 10 0 15 15 17 58 3 53
5 57 28 57 23 0 25 -4 28 -57 3 -50 6 -58 22 -58 18 0 20 7 20 60 0 47 -4 64
-20 80 -11 11 -26 19 -32 18 -7 0 -28 -3 -45 -5z"/>
<path d="M2795 2341 c-53 -22 -65 -92 -23 -131 29 -27 101 -25 106 3 3 14 -1
17 -21 12 -26 -7 -67 9 -67 25 0 6 25 10 56 10 l56 0 -7 28 c-3 15 -12 32 -18
39 -17 17 -58 24 -82 14z m39 -27 c28 -11 18 -34 -14 -34 -32 0 -37 9 -18 28
14 14 12 14 32 6z"/>
<path d="M3164 2338 c-23 -11 -44 -48 -44 -77 0 -10 10 -30 21 -45 18 -23 28
-27 63 -24 33 2 42 7 44 25 3 20 1 21 -27 10 -35 -13 -61 3 -61 37 0 35 15 48
51 44 25 -2 35 1 37 13 5 26 -46 36 -84 17z"/>
<path d="M3314 2338 c-23 -11 -44 -48 -44 -77 0 -10 9 -30 21 -45 37 -47 119
-28 133 30 9 36 -9 79 -40 93 -30 13 -42 13 -70 -1z m66 -42 c28 -35 -11 -93
-47 -70 -19 12 -28 46 -19 70 7 18 50 18 66 0z"/>
<path d="M3493 2343 l-33 -4 0 -75 c0 -67 2 -74 20 -74 18 0 20 7 20 55 0 42
4 57 16 62 23 8 34 -14 34 -69 0 -35 4 -48 15 -48 10 0 15 15 17 58 3 49 6 57
23 57 17 0 20 -8 23 -57 3 -51 6 -58 24 -58 19 0 20 5 16 66 -4 70 -25 102
-58 88 -17 -8 -36 -8 -65 -1 -11 2 -35 2 -52 0z"/>
<path d="M3050 2210 c0 -13 7 -20 20 -20 13 0 20 7 20 20 0 13 -7 20 -20 20
-13 0 -20 -7 -20 -20z"/>
</g>
</svg>
